<svg width="246" height="69" viewBox="0 0 246 69" fill="none" xmlns="http://www.w3.org/2000/svg">
<path d="M4.77457 10.7502C2.83485 5.82885 6.46235 0.5 11.7521 0.500001L218.668 0.500011C222.188 0.500011 225.234 2.94701 225.992 6.38359L236.26 52.9065C237.324 57.728 233.52 62.2444 228.588 62.0148L26.024 52.5863C23.0735 52.4489 20.4783 50.5926 19.3952 47.8446L4.77457 10.7502Z" stroke="#6698FF"/>
<path d="M89.128 35.0821C87.1 35.0821 85.552 34.5181 84.484 33.3901C83.428 32.2621 82.9 30.6601 82.9 28.5841C82.9 27.5521 83.062 26.6341 83.386 25.8301C83.71 25.0141 84.154 24.3301 84.718 23.7781C85.282 23.2141 85.954 22.7881 86.734 22.5001C87.514 22.2121 88.36 22.0681 89.272 22.0681C89.8 22.0681 90.28 22.1101 90.712 22.1941C91.144 22.2661 91.522 22.3561 91.846 22.4641C92.17 22.5601 92.44 22.6621 92.656 22.7701C92.872 22.8781 93.028 22.9621 93.124 23.0221L92.314 25.2901C91.93 25.0861 91.48 24.9121 90.964 24.7681C90.46 24.6241 89.884 24.5521 89.236 24.5521C88.804 24.5521 88.378 24.6241 87.958 24.7681C87.55 24.9121 87.184 25.1461 86.86 25.4701C86.548 25.7821 86.296 26.1901 86.104 26.6941C85.912 27.1981 85.816 27.8101 85.816 28.5301C85.816 29.1061 85.876 29.6461 85.996 30.1501C86.128 30.6421 86.332 31.0681 86.608 31.4281C86.896 31.7881 87.268 32.0761 87.724 32.2921C88.18 32.4961 88.732 32.5981 89.38 32.5981C89.788 32.5981 90.154 32.5741 90.478 32.5261C90.802 32.4781 91.09 32.4241 91.342 32.3641C91.594 32.2921 91.816 32.2141 92.008 32.1301C92.2 32.0461 92.374 31.9681 92.53 31.8961L93.304 34.1461C92.908 34.3861 92.35 34.6021 91.63 34.7941C90.91 34.9861 90.076 35.0821 89.128 35.0821ZM94.9319 34.8301V21.2941L97.6139 20.8621V25.3981C97.7939 25.3381 98.0219 25.2841 98.2979 25.2361C98.5859 25.1761 98.8619 25.1461 99.1259 25.1461C99.8939 25.1461 100.53 25.2541 101.034 25.4701C101.55 25.6741 101.958 25.9681 102.258 26.3521C102.57 26.7361 102.786 27.1921 102.906 27.7201C103.038 28.2481 103.104 28.8361 103.104 29.4841V34.8301H100.422V29.8081C100.422 28.9441 100.308 28.3321 100.08 27.9721C99.8639 27.6121 99.4559 27.4321 98.8559 27.4321C98.6159 27.4321 98.3879 27.4561 98.1719 27.5041C97.9679 27.5401 97.7819 27.5821 97.6139 27.6301V34.8301H94.9319ZM105.081 30.1681C105.081 29.3281 105.207 28.5961 105.459 27.9721C105.723 27.3361 106.065 26.8081 106.485 26.3881C106.905 25.9681 107.385 25.6501 107.925 25.4341C108.477 25.2181 109.041 25.1101 109.617 25.1101C110.961 25.1101 112.023 25.5241 112.803 26.3521C113.583 27.1681 113.973 28.3741 113.973 29.9701C113.973 30.1261 113.967 30.3001 113.955 30.4921C113.943 30.6721 113.931 30.8341 113.919 30.9781H107.835C107.895 31.5301 108.153 31.9681 108.609 32.2921C109.065 32.6161 109.677 32.7781 110.445 32.7781C110.937 32.7781 111.417 32.7361 111.885 32.6521C112.365 32.5561 112.755 32.4421 113.055 32.3101L113.415 34.4881C113.271 34.5601 113.079 34.6321 112.839 34.7041C112.599 34.7761 112.329 34.8361 112.029 34.8841C111.741 34.9441 111.429 34.9921 111.093 35.0281C110.757 35.0641 110.421 35.0821 110.085 35.0821C109.233 35.0821 108.489 34.9561 107.853 34.7041C107.229 34.4521 106.707 34.1101 106.287 33.6781C105.879 33.2341 105.573 32.7121 105.369 32.1121C105.177 31.5121 105.081 30.8641 105.081 30.1681ZM111.381 29.1421C111.369 28.9141 111.327 28.6921 111.255 28.4761C111.195 28.2601 111.093 28.0681 110.949 27.9001C110.817 27.7321 110.643 27.5941 110.427 27.4861C110.223 27.3781 109.965 27.3241 109.653 27.3241C109.353 27.3241 109.095 27.3781 108.879 27.4861C108.663 27.5821 108.483 27.7141 108.339 27.8821C108.195 28.0501 108.081 28.2481 107.997 28.4761C107.925 28.6921 107.871 28.9141 107.835 29.1421H111.381ZM115.593 30.0961C115.593 29.4121 115.701 28.7701 115.917 28.1701C116.145 27.5581 116.469 27.0301 116.889 26.5861C117.309 26.1301 117.819 25.7701 118.419 25.5061C119.019 25.2421 119.703 25.1101 120.471 25.1101C120.975 25.1101 121.437 25.1581 121.857 25.2541C122.277 25.3381 122.685 25.4641 123.081 25.6321L122.523 27.7741C122.271 27.6781 121.995 27.5941 121.695 27.5221C121.395 27.4501 121.059 27.4141 120.687 27.4141C119.895 27.4141 119.301 27.6601 118.905 28.1521C118.521 28.6441 118.329 29.2921 118.329 30.0961C118.329 30.9481 118.509 31.6081 118.869 32.0761C119.241 32.5441 119.883 32.7781 120.795 32.7781C121.119 32.7781 121.467 32.7481 121.839 32.6881C122.211 32.6281 122.553 32.5321 122.865 32.4001L123.243 34.5961C122.931 34.7281 122.541 34.8421 122.073 34.9381C121.605 35.0341 121.089 35.0821 120.525 35.0821C119.661 35.0821 118.917 34.9561 118.293 34.7041C117.669 34.4401 117.153 34.0861 116.745 33.6421C116.349 33.1981 116.055 32.6761 115.863 32.0761C115.683 31.4641 115.593 30.8041 115.593 30.0961ZM127.725 28.7821C127.989 28.4941 128.259 28.1941 128.535 27.8821C128.823 27.5701 129.099 27.2641 129.363 26.9641C129.627 26.6521 129.873 26.3581 130.101 26.0821C130.341 25.8061 130.545 25.5661 130.713 25.3621H133.899C133.263 26.0941 132.639 26.7961 132.027 27.4681C131.427 28.1281 130.767 28.8121 130.047 29.5201C130.407 29.8441 130.779 30.2341 131.163 30.6901C131.547 31.1341 131.919 31.5961 132.279 32.0761C132.639 32.5561 132.969 33.0361 133.269 33.5161C133.569 33.9961 133.821 34.4341 134.025 34.8301H130.947C130.755 34.5181 130.533 34.1761 130.281 33.8041C130.041 33.4201 129.783 33.0421 129.507 32.6701C129.231 32.2861 128.937 31.9201 128.625 31.5721C128.325 31.2241 128.025 30.9301 127.725 30.6901V34.8301H125.043V21.2941L127.725 20.8621V28.7821ZM143.673 30.0781C143.673 30.8221 143.565 31.5061 143.349 32.1301C143.133 32.7421 142.821 33.2701 142.413 33.7141C142.005 34.1461 141.513 34.4821 140.937 34.7221C140.373 34.9621 139.737 35.0821 139.029 35.0821C138.333 35.0821 137.697 34.9621 137.121 34.7221C136.557 34.4821 136.071 34.1461 135.663 33.7141C135.255 33.2701 134.937 32.7421 134.709 32.1301C134.481 31.5061 134.367 30.8221 134.367 30.0781C134.367 29.3341 134.481 28.6561 134.709 28.0441C134.949 27.4321 135.273 26.9101 135.681 26.4781C136.101 26.0461 136.593 25.7101 137.157 25.4701C137.733 25.2301 138.357 25.1101 139.029 25.1101C139.713 25.1101 140.337 25.2301 140.901 25.4701C141.477 25.7101 141.969 26.0461 142.377 26.4781C142.785 26.9101 143.103 27.4321 143.331 28.0441C143.559 28.6561 143.673 29.3341 143.673 30.0781ZM140.937 30.0781C140.937 29.2501 140.769 28.6021 140.433 28.1341C140.109 27.6541 139.641 27.4141 139.029 27.4141C138.417 27.4141 137.943 27.6541 137.607 28.1341C137.271 28.6021 137.103 29.2501 137.103 30.0781C137.103 30.9061 137.271 31.5661 137.607 32.0581C137.943 32.5381 138.417 32.7781 139.029 32.7781C139.641 32.7781 140.109 32.5381 140.433 32.0581C140.769 31.5661 140.937 30.9061 140.937 30.0781ZM153.832 34.5061C153.376 34.6381 152.788 34.7581 152.068 34.8661C151.348 34.9861 150.592 35.0461 149.8 35.0461C148.996 35.0461 148.324 34.9381 147.784 34.7221C147.256 34.5061 146.836 34.2061 146.524 33.8221C146.212 33.4261 145.99 32.9581 145.858 32.4181C145.726 31.8781 145.66 31.2841 145.66 30.6361V25.3621H148.342V30.3121C148.342 31.1761 148.456 31.8001 148.684 32.1841C148.912 32.5681 149.338 32.7601 149.962 32.7601C150.154 32.7601 150.358 32.7541 150.574 32.7421C150.79 32.7181 150.982 32.6941 151.15 32.6701V25.3621H153.832V34.5061ZM156.26 23.0041L158.942 22.5721V25.3621H162.164V27.5941H158.942V30.9241C158.942 31.4881 159.038 31.9381 159.23 32.2741C159.434 32.6101 159.836 32.7781 160.436 32.7781C160.724 32.7781 161.018 32.7541 161.318 32.7061C161.63 32.6461 161.912 32.5681 162.164 32.4721L162.542 34.5601C162.218 34.6921 161.858 34.8061 161.462 34.9021C161.066 34.9981 160.58 35.0461 160.004 35.0461C159.272 35.0461 158.666 34.9501 158.186 34.7581C157.706 34.5541 157.322 34.2781 157.034 33.9301C156.746 33.5701 156.542 33.1381 156.422 32.6341C156.314 32.1301 156.26 31.5721 156.26 30.9601V23.0041Z" fill="#6698FF"/>
</svg>
