<svg width="246" height="69" viewBox="0 0 246 69" fill="none" xmlns="http://www.w3.org/2000/svg">
<path d="M4.3094 10.9335C2.24037 5.68411 6.1097 3.10711e-07 11.7521 5.97659e-07L218.668 1.11205e-05C222.422 1.13114e-05 225.671 2.61014 226.48 6.27583L236.748 52.7987C237.884 57.9416 233.825 62.7591 228.565 62.5143L26.0008 53.0857C22.8535 52.9392 20.0853 50.9591 18.93 48.0279L4.3094 10.9335Z" fill="#6698FF"/>
<path d="M11.3094 16.9335C9.24037 11.6841 13.1097 6 18.7521 6L225.668 6.00001C229.422 6.00001 232.671 8.61014 233.48 12.2758L243.748 58.7987C244.884 63.9416 240.825 68.7591 235.565 68.5143L33.0008 59.0857C29.8535 58.9392 27.0853 56.9591 25.93 54.0279L11.3094 16.9335Z" fill="#6698FF" fill-opacity="0.3"/>
<path d="M78.128 35.0822C76.1 35.0822 74.552 34.5182 73.484 33.3902C72.428 32.2622 71.9 30.6602 71.9 28.5842C71.9 27.5522 72.062 26.6342 72.386 25.8302C72.71 25.0142 73.154 24.3302 73.718 23.7782C74.282 23.2142 74.954 22.7882 75.734 22.5002C76.514 22.2122 77.36 22.0682 78.272 22.0682C78.8 22.0682 79.28 22.1102 79.712 22.1942C80.144 22.2662 80.522 22.3562 80.846 22.4642C81.17 22.5602 81.44 22.6622 81.656 22.7702C81.872 22.8782 82.028 22.9622 82.124 23.0222L81.314 25.2902C80.93 25.0862 80.48 24.9122 79.964 24.7682C79.46 24.6242 78.884 24.5522 78.236 24.5522C77.804 24.5522 77.378 24.6242 76.958 24.7682C76.55 24.9122 76.184 25.1462 75.86 25.4702C75.548 25.7822 75.296 26.1902 75.104 26.6942C74.912 27.1982 74.816 27.8102 74.816 28.5302C74.816 29.1062 74.876 29.6462 74.996 30.1502C75.128 30.6422 75.332 31.0682 75.608 31.4282C75.896 31.7882 76.268 32.0762 76.724 32.2922C77.18 32.4962 77.732 32.5982 78.38 32.5982C78.788 32.5982 79.154 32.5742 79.478 32.5262C79.802 32.4782 80.09 32.4242 80.342 32.3642C80.594 32.2922 80.816 32.2142 81.008 32.1302C81.2 32.0462 81.374 31.9682 81.53 31.8962L82.304 34.1462C81.908 34.3862 81.35 34.6022 80.63 34.7942C79.91 34.9862 79.076 35.0822 78.128 35.0822ZM92.5769 30.0782C92.5769 30.8222 92.4689 31.5062 92.2529 32.1302C92.0369 32.7422 91.7249 33.2702 91.3169 33.7142C90.9089 34.1462 90.4169 34.4822 89.8409 34.7222C89.2769 34.9622 88.6409 35.0822 87.9329 35.0822C87.2369 35.0822 86.6009 34.9622 86.0249 34.7222C85.4609 34.4822 84.9749 34.1462 84.5669 33.7142C84.1589 33.2702 83.8409 32.7422 83.6129 32.1302C83.3849 31.5062 83.2709 30.8222 83.2709 30.0782C83.2709 29.3342 83.3849 28.6562 83.6129 28.0442C83.8529 27.4322 84.1769 26.9102 84.5849 26.4782C85.0049 26.0462 85.4969 25.7102 86.0609 25.4702C86.6369 25.2302 87.2609 25.1102 87.9329 25.1102C88.6169 25.1102 89.2409 25.2302 89.8049 25.4702C90.3809 25.7102 90.8729 26.0462 91.2809 26.4782C91.6889 26.9102 92.0069 27.4322 92.2349 28.0442C92.4629 28.6562 92.5769 29.3342 92.5769 30.0782ZM89.8409 30.0782C89.8409 29.2502 89.6729 28.6022 89.3369 28.1342C89.0129 27.6542 88.5449 27.4142 87.9329 27.4142C87.3209 27.4142 86.8469 27.6542 86.5109 28.1342C86.1749 28.6022 86.0069 29.2502 86.0069 30.0782C86.0069 30.9062 86.1749 31.5662 86.5109 32.0582C86.8469 32.5382 87.3209 32.7782 87.9329 32.7782C88.5449 32.7782 89.0129 32.5382 89.3369 32.0582C89.6729 31.5662 89.8409 30.9062 89.8409 30.0782ZM94.6545 25.6862C95.1105 25.5542 95.6985 25.4342 96.4185 25.3262C97.1385 25.2062 97.8945 25.1462 98.6865 25.1462C99.4905 25.1462 100.157 25.2542 100.685 25.4702C101.225 25.6742 101.651 25.9682 101.963 26.3522C102.275 26.7362 102.497 27.1922 102.629 27.7202C102.761 28.2482 102.827 28.8362 102.827 29.4842V34.8302H100.145V29.8082C100.145 28.9442 100.031 28.3322 99.8025 27.9722C99.5745 27.6122 99.1485 27.4322 98.5245 27.4322C98.3325 27.4322 98.1285 27.4442 97.9125 27.4682C97.6965 27.4802 97.5045 27.4982 97.3365 27.5222V34.8302H94.6545V25.6862ZM105.164 23.0042L107.846 22.5722V25.3622H111.068V27.5942H107.846V30.9242C107.846 31.4882 107.942 31.9382 108.134 32.2742C108.338 32.6102 108.74 32.7782 109.34 32.7782C109.628 32.7782 109.922 32.7542 110.222 32.7062C110.534 32.6462 110.816 32.5682 111.068 32.4722L111.446 34.5602C111.122 34.6922 110.762 34.8062 110.366 34.9022C109.97 34.9982 109.484 35.0462 108.908 35.0462C108.176 35.0462 107.57 34.9502 107.09 34.7582C106.61 34.5542 106.226 34.2782 105.938 33.9302C105.65 33.5702 105.446 33.1382 105.326 32.6342C105.218 32.1302 105.164 31.5722 105.164 30.9602V23.0042ZM116.519 32.9582C116.783 32.9582 117.035 32.9522 117.275 32.9402C117.515 32.9282 117.707 32.9102 117.851 32.8862V30.8522C117.743 30.8282 117.581 30.8042 117.365 30.7802C117.149 30.7562 116.951 30.7442 116.771 30.7442C116.519 30.7442 116.279 30.7622 116.051 30.7982C115.835 30.8222 115.643 30.8762 115.475 30.9602C115.307 31.0442 115.175 31.1582 115.079 31.3022C114.983 31.4462 114.935 31.6262 114.935 31.8422C114.935 32.2622 115.073 32.5562 115.349 32.7242C115.637 32.8802 116.027 32.9582 116.519 32.9582ZM116.303 25.1102C117.095 25.1102 117.755 25.2002 118.283 25.3802C118.811 25.5602 119.231 25.8182 119.543 26.1542C119.867 26.4902 120.095 26.8982 120.227 27.3782C120.359 27.8582 120.425 28.3922 120.425 28.9802V34.5602C120.041 34.6442 119.507 34.7402 118.823 34.8482C118.139 34.9682 117.311 35.0282 116.339 35.0282C115.727 35.0282 115.169 34.9742 114.665 34.8662C114.173 34.7582 113.747 34.5842 113.387 34.3442C113.027 34.0922 112.751 33.7682 112.559 33.3722C112.367 32.9762 112.271 32.4902 112.271 31.9142C112.271 31.3622 112.379 30.8942 112.595 30.5102C112.823 30.1262 113.123 29.8202 113.495 29.5922C113.867 29.3642 114.293 29.2022 114.773 29.1062C115.253 28.9982 115.751 28.9442 116.267 28.9442C116.615 28.9442 116.921 28.9622 117.185 28.9982C117.461 29.0222 117.683 29.0582 117.851 29.1062V28.8542C117.851 28.3982 117.713 28.0322 117.437 27.7562C117.161 27.4802 116.681 27.3422 115.997 27.3422C115.541 27.3422 115.091 27.3782 114.647 27.4502C114.203 27.5102 113.819 27.6002 113.495 27.7202L113.153 25.5602C113.309 25.5122 113.501 25.4642 113.729 25.4162C113.969 25.3562 114.227 25.3082 114.503 25.2722C114.779 25.2242 115.067 25.1882 115.367 25.1642C115.679 25.1282 115.991 25.1102 116.303 25.1102ZM122.4 30.0962C122.4 29.4122 122.508 28.7702 122.724 28.1702C122.952 27.5582 123.276 27.0302 123.696 26.5862C124.116 26.1302 124.626 25.7702 125.226 25.5062C125.826 25.2422 126.51 25.1102 127.278 25.1102C127.782 25.1102 128.244 25.1582 128.664 25.2542C129.084 25.3382 129.492 25.4642 129.888 25.6322L129.33 27.7742C129.078 27.6782 128.802 27.5942 128.502 27.5222C128.202 27.4502 127.866 27.4142 127.494 27.4142C126.702 27.4142 126.108 27.6602 125.712 28.1522C125.328 28.6442 125.136 29.2922 125.136 30.0962C125.136 30.9482 125.316 31.6082 125.676 32.0762C126.048 32.5442 126.69 32.7782 127.602 32.7782C127.926 32.7782 128.274 32.7482 128.646 32.6882C129.018 32.6282 129.36 32.5322 129.672 32.4002L130.05 34.5962C129.738 34.7282 129.348 34.8422 128.88 34.9382C128.412 35.0342 127.896 35.0822 127.332 35.0822C126.468 35.0822 125.724 34.9562 125.1 34.7042C124.476 34.4402 123.96 34.0862 123.552 33.6422C123.156 33.1982 122.862 32.6762 122.67 32.0762C122.49 31.4642 122.4 30.8042 122.4 30.0962ZM131.76 23.0042L134.442 22.5722V25.3622H137.664V27.5942H134.442V30.9242C134.442 31.4882 134.538 31.9382 134.73 32.2742C134.934 32.6102 135.336 32.7782 135.936 32.7782C136.224 32.7782 136.518 32.7542 136.818 32.7062C137.13 32.6462 137.412 32.5682 137.664 32.4722L138.042 34.5602C137.718 34.6922 137.358 34.8062 136.962 34.9022C136.566 34.9982 136.08 35.0462 135.504 35.0462C134.772 35.0462 134.166 34.9502 133.686 34.7582C133.206 34.5542 132.822 34.2782 132.534 33.9302C132.246 33.5702 132.042 33.1382 131.922 32.6342C131.814 32.1302 131.76 31.5722 131.76 30.9602V23.0042ZM147.664 22.3562C147.88 22.7522 148.126 23.2442 148.402 23.8322C148.69 24.4082 148.984 25.0382 149.284 25.7222C149.596 26.3942 149.902 27.0842 150.202 27.7922C150.502 28.5002 150.784 29.1662 151.048 29.7902C151.312 29.1662 151.594 28.5002 151.894 27.7922C152.194 27.0842 152.494 26.3942 152.794 25.7222C153.106 25.0382 153.4 24.4082 153.676 23.8322C153.964 23.2442 154.216 22.7522 154.432 22.3562H156.988C157.108 23.1842 157.216 24.1142 157.312 25.1462C157.42 26.1662 157.51 27.2342 157.582 28.3502C157.666 29.4542 157.738 30.5642 157.798 31.6802C157.87 32.7962 157.93 33.8462 157.978 34.8302H155.242C155.206 33.6182 155.158 32.2982 155.098 30.8702C155.038 29.4422 154.948 28.0022 154.828 26.5502C154.612 27.0542 154.372 27.6122 154.108 28.2242C153.844 28.8362 153.58 29.4482 153.316 30.0602C153.064 30.6722 152.818 31.2602 152.578 31.8242C152.338 32.3762 152.134 32.8502 151.966 33.2462H150.004C149.836 32.8502 149.632 32.3762 149.392 31.8242C149.152 31.2602 148.9 30.6722 148.636 30.0602C148.384 29.4482 148.126 28.8362 147.862 28.2242C147.598 27.6122 147.358 27.0542 147.142 26.5502C147.022 28.0022 146.932 29.4422 146.872 30.8702C146.812 32.2982 146.764 33.6182 146.728 34.8302H143.992C144.04 33.8462 144.094 32.7962 144.154 31.6802C144.226 30.5642 144.298 29.4542 144.37 28.3502C144.454 27.2342 144.544 26.1662 144.64 25.1462C144.748 24.1142 144.862 23.1842 144.982 22.3562H147.664ZM159.876 30.1682C159.876 29.3282 160.002 28.5962 160.254 27.9722C160.518 27.3362 160.86 26.8082 161.28 26.3882C161.7 25.9682 162.18 25.6502 162.72 25.4342C163.272 25.2182 163.836 25.1102 164.412 25.1102C165.756 25.1102 166.818 25.5242 167.598 26.3522C168.378 27.1682 168.768 28.3742 168.768 29.9702C168.768 30.1262 168.762 30.3002 168.75 30.4922C168.738 30.6722 168.726 30.8342 168.714 30.9782H162.63C162.69 31.5302 162.948 31.9682 163.404 32.2922C163.86 32.6162 164.472 32.7782 165.24 32.7782C165.732 32.7782 166.212 32.7362 166.68 32.6522C167.16 32.5562 167.55 32.4422 167.85 32.3102L168.21 34.4882C168.066 34.5602 167.874 34.6322 167.634 34.7042C167.394 34.7762 167.124 34.8362 166.824 34.8842C166.536 34.9442 166.224 34.9922 165.888 35.0282C165.552 35.0642 165.216 35.0822 164.88 35.0822C164.028 35.0822 163.284 34.9562 162.648 34.7042C162.024 34.4522 161.502 34.1102 161.082 33.6782C160.674 33.2342 160.368 32.7122 160.164 32.1122C159.972 31.5122 159.876 30.8642 159.876 30.1682ZM166.176 29.1422C166.164 28.9142 166.122 28.6922 166.05 28.4762C165.99 28.2602 165.888 28.0682 165.744 27.9002C165.612 27.7322 165.438 27.5942 165.222 27.4862C165.018 27.3782 164.76 27.3242 164.448 27.3242C164.148 27.3242 163.89 27.3782 163.674 27.4862C163.458 27.5822 163.278 27.7142 163.134 27.8822C162.99 28.0502 162.876 28.2482 162.792 28.4762C162.72 28.6922 162.666 28.9142 162.63 29.1422H166.176Z" fill="white"/>
</svg>
