<svg width="155" height="155" viewBox="0 0 155 155" fill="none" xmlns="http://www.w3.org/2000/svg">
<g filter="url(#filter0_b_45_2701)">
<path d="M6.94775 84.587C3.23831 81.6041 2.93835 76.0617 6.30419 72.6958L69.0807 9.91931C72.0716 6.92842 76.8739 6.78259 80.0408 9.58649L147.068 68.9314C150.923 72.3447 150.596 78.4582 146.4 81.4415L75.2372 132.029C72.3193 134.103 68.3786 133.986 65.5888 131.743L6.94775 84.587Z" fill="#6698FF" fill-opacity="0.1"/>
<path d="M7.26108 84.1973C3.78348 81.4009 3.50227 76.2048 6.65775 73.0494L69.4343 10.2729C72.2382 7.4689 76.7404 7.33219 79.7093 9.96085L146.736 69.3058C150.351 72.5058 150.045 78.2371 146.11 81.034L74.9475 131.621C72.212 133.566 68.5176 133.456 65.9021 131.353L7.26108 84.1973Z" stroke="#6698FF"/>
</g>
<path d="M70.8787 61.6096L84.4113 48.077" stroke="#6698FF" stroke-width="3" stroke-linecap="round" stroke-linejoin="round"/>
<path d="M72.8119 48.0768L84.4113 48.0768" stroke="#6698FF" stroke-width="3" stroke-linecap="round" stroke-linejoin="round"/>
<path d="M84.4113 59.6763L84.4113 48.0769" stroke="#6698FF" stroke-width="3" stroke-linecap="round" stroke-linejoin="round"/>
<path d="M55.041 76.1705H56.787V88.6445H55.041V82.8845H48.939V88.6445H47.193V76.1705H48.939V81.3725H55.041V76.1705ZM61.4504 88.6445H59.7764V79.2845H61.4504V88.6445ZM60.6044 77.5925C60.3044 77.5925 60.0464 77.4965 59.8304 77.3045C59.6264 77.1005 59.5244 76.8305 59.5244 76.4945C59.5244 76.1585 59.6264 75.8945 59.8304 75.7025C60.0464 75.4985 60.3044 75.3965 60.6044 75.3965C60.9044 75.3965 61.1564 75.4985 61.3604 75.7025C61.5764 75.8945 61.6844 76.1585 61.6844 76.4945C61.6844 76.8305 61.5764 77.1005 61.3604 77.3045C61.1564 77.4965 60.9044 77.5925 60.6044 77.5925ZM67.7851 79.0865C67.9291 79.0865 68.0911 79.0985 68.2711 79.1225C68.4631 79.1345 68.6491 79.1585 68.8291 79.1945C69.0091 79.2185 69.1711 79.2485 69.3151 79.2845C69.4711 79.3085 69.5851 79.3325 69.6571 79.3565L69.3691 80.8145C69.2371 80.7665 69.0151 80.7125 68.7031 80.6525C68.4031 80.5805 68.0131 80.5445 67.5331 80.5445C67.2211 80.5445 66.9091 80.5805 66.5971 80.6525C66.2971 80.7125 66.0991 80.7545 66.0031 80.7785V88.6445H64.3291V79.6805C64.7251 79.5365 65.2171 79.4045 65.8051 79.2845C66.3931 79.1525 67.0531 79.0865 67.7851 79.0865ZM70.7505 83.9825C70.7505 83.1545 70.8705 82.4345 71.1105 81.8225C71.3505 81.1985 71.6685 80.6825 72.0645 80.2745C72.4605 79.8665 72.9165 79.5605 73.4325 79.3565C73.9485 79.1525 74.4765 79.0505 75.0165 79.0505C76.2765 79.0505 77.2425 79.4465 77.9145 80.2385C78.5865 81.0185 78.9225 82.2125 78.9225 83.8205C78.9225 83.8925 78.9225 83.9885 78.9225 84.1085C78.9225 84.2165 78.9165 84.3185 78.9045 84.4145H72.4965C72.5685 85.3865 72.8505 86.1245 73.3425 86.6285C73.8345 87.1325 74.6025 87.3845 75.6465 87.3845C76.2345 87.3845 76.7265 87.3365 77.1225 87.2405C77.5305 87.1325 77.8365 87.0305 78.0405 86.9345L78.2745 88.3385C78.0705 88.4465 77.7105 88.5605 77.1945 88.6805C76.6905 88.8005 76.1145 88.8605 75.4665 88.8605C74.6505 88.8605 73.9425 88.7405 73.3425 88.5005C72.7545 88.2485 72.2685 87.9065 71.8845 87.4745C71.5005 87.0425 71.2125 86.5325 71.0205 85.9445C70.8405 85.3445 70.7505 84.6905 70.7505 83.9825ZM77.1765 83.0645C77.1885 82.3085 76.9965 81.6905 76.6005 81.2105C76.2165 80.7185 75.6825 80.4725 74.9985 80.4725C74.6145 80.4725 74.2725 80.5505 73.9725 80.7065C73.6845 80.8505 73.4385 81.0425 73.2345 81.2825C73.0305 81.5225 72.8685 81.7985 72.7485 82.1105C72.6405 82.4225 72.5685 82.7405 72.5325 83.0645H77.1765ZM91.1992 86.9165C91.0792 86.6285 90.9172 86.2625 90.7132 85.8185C90.5212 85.3745 90.3112 84.8945 90.0832 84.3785C89.8552 83.8625 89.6092 83.3345 89.3452 82.7945C89.0932 82.2425 88.8532 81.7265 88.6252 81.2465C88.3972 80.7545 88.1812 80.3165 87.9772 79.9325C87.7852 79.5485 87.6292 79.2545 87.5092 79.0505C87.3772 80.4665 87.2692 82.0025 87.1852 83.6585C87.1012 85.3025 87.0292 86.9645 86.9692 88.6445H85.2592C85.3072 87.5645 85.3612 86.4785 85.4212 85.3865C85.4812 84.2825 85.5472 83.2025 85.6192 82.1465C85.7032 81.0785 85.7872 80.0405 85.8712 79.0325C85.9672 78.0245 86.0692 77.0705 86.1772 76.1705H87.7072C88.0312 76.6985 88.3792 77.3225 88.7512 78.0425C89.1232 78.7625 89.4952 79.5185 89.8672 80.3105C90.2392 81.0905 90.5992 81.8765 90.9472 82.6685C91.2952 83.4485 91.6132 84.1625 91.9012 84.8105C92.1892 84.1625 92.5072 83.4485 92.8552 82.6685C93.2032 81.8765 93.5632 81.0905 93.9352 80.3105C94.3072 79.5185 94.6792 78.7625 95.0512 78.0425C95.4232 77.3225 95.7712 76.6985 96.0952 76.1705H97.6252C98.0332 80.1905 98.3392 84.3485 98.5432 88.6445H96.8332C96.7732 86.9645 96.7012 85.3025 96.6172 83.6585C96.5332 82.0025 96.4252 80.4665 96.2932 79.0505C96.1732 79.2545 96.0112 79.5485 95.8072 79.9325C95.6152 80.3165 95.4052 80.7545 95.1772 81.2465C94.9492 81.7265 94.7032 82.2425 94.4392 82.7945C94.1872 83.3345 93.9472 83.8625 93.7192 84.3785C93.4912 84.8945 93.2752 85.3745 93.0712 85.8185C92.8792 86.2625 92.7232 86.6285 92.6032 86.9165H91.1992ZM100.651 83.9825C100.651 83.1545 100.771 82.4345 101.011 81.8225C101.251 81.1985 101.569 80.6825 101.965 80.2745C102.361 79.8665 102.817 79.5605 103.333 79.3565C103.849 79.1525 104.377 79.0505 104.917 79.0505C106.177 79.0505 107.143 79.4465 107.815 80.2385C108.487 81.0185 108.823 82.2125 108.823 83.8205C108.823 83.8925 108.823 83.9885 108.823 84.1085C108.823 84.2165 108.817 84.3185 108.805 84.4145H102.397C102.469 85.3865 102.751 86.1245 103.243 86.6285C103.735 87.1325 104.503 87.3845 105.547 87.3845C106.135 87.3845 106.627 87.3365 107.023 87.2405C107.431 87.1325 107.737 87.0305 107.941 86.9345L108.175 88.3385C107.971 88.4465 107.611 88.5605 107.095 88.6805C106.591 88.8005 106.015 88.8605 105.367 88.8605C104.551 88.8605 103.843 88.7405 103.243 88.5005C102.655 88.2485 102.169 87.9065 101.785 87.4745C101.401 87.0425 101.113 86.5325 100.921 85.9445C100.741 85.3445 100.651 84.6905 100.651 83.9825ZM107.077 83.0645C107.089 82.3085 106.897 81.6905 106.501 81.2105C106.117 80.7185 105.583 80.4725 104.899 80.4725C104.515 80.4725 104.173 80.5505 103.873 80.7065C103.585 80.8505 103.339 81.0425 103.135 81.2825C102.931 81.5225 102.769 81.7985 102.649 82.1105C102.541 82.4225 102.469 82.7405 102.433 83.0645H107.077Z" fill="white"/>
<defs>
<filter id="filter0_b_45_2701" x="-46.039" y="-42.4238" width="245.804" height="225.932" filterUnits="userSpaceOnUse" color-interpolation-filters="sRGB">
<feFlood flood-opacity="0" result="BackgroundImageFix"/>
<feGaussianBlur in="BackgroundImageFix" stdDeviation="25"/>
<feComposite in2="SourceAlpha" operator="in" result="effect1_backgroundBlur_45_2701"/>
<feBlend mode="normal" in="SourceGraphic" in2="effect1_backgroundBlur_45_2701" result="shape"/>
</filter>
</defs>
</svg>
